PathFileType	4	(X/Y/Z)	33_2_103_p1_0-240_filt_butterworth.trc
DataRate	CameraRate	NumFrames	NumMarkers	Units	OrigDataRate	OrigDataStartFrame	OrigNumFrames
59.0	59.0	6	27	m	59.0	120	240
Frame#	Time	RHip			RKnee			RAnkle			RBigToe			RSmallToe			RHeel			LHip			LKnee			LAnkle			LBigToe			LSmallToe			LHeel			Neck			Head			Nose			RShoulder			RElbow			RWrist			RThumb			RIndex			RPinky			LShoulder			LElbow			LWrist			LThumb			LIndex			LPinky			
		X1	Y1	Z1	X2	Y2	Z2	X3	Y3	Z3	X4	Y4	Z4	X5	Y5	Z5	X6	Y6	Z6	X7	Y7	Z7	X8	Y8	Z8	X9	Y9	Z9	X10	Y10	Z10	X11	Y11	Z11	X12	Y12	Z12	X13	Y13	Z13	X14	Y14	Z14	X15	Y15	Z15	X16	Y16	Z16	X17	Y17	Z17	X18	Y18	Z18	X19	Y19	Z19	X20	Y20	Z20	X21	Y21	Z21	X22	Y22	Z22	X23	Y23	Z23	X24	Y24	Z24	X25	Y25	Z25	X26	Y26	Z26	X27	Y27	Z27	
120	2.0338983050847457	0.2758482340108208	0.3500829774509142	0.2092213874916649	0.2552681624390616	0.48562238611920877	0.5857662146898933	0.23539100232361806	0.7697957684515656	0.9396538964483331	0.2194722778272949	0.543048253065446	0.9927556246563414	0.2630574415283534	0.5554006497239216	0.9973760837090907	0.23995642145200344	0.8855878468805662	1.0033981927181788	0.07217119864430208	0.3909654791910454	0.20181285859802373	0.06511641338558902	0.48894653786218334	0.5845004477598367	0.08659182959400091	0.7797668206058754	0.9549984409350097	0.1009243684715306	0.5314998855303804	0.9873105171399541	0.06259403325360116	0.5795087823961332	0.9933133856810428	0.0936107092665306	0.857296113575418	0.9915797071113307	0.1778357440696626	-0.02330635991797013	-0.17979166569346067	0.18129778718223857	-0.3517288087750534	-0.31330452545306287	0.17727478783069467	-0.2571517558309392	-0.15683943626631255	0.3318763588528705	-0.012203595877888688	-0.13534092770596765	0.39496959732165515	0.012579126628585534	0.12072321610464044	0.44789900456518505	-0.186094150869544	0.146193895919324	0.46849578025656846	-0.35100523286115526	0.11409971307646252	0.4670753056514053	-0.33983703608268323	0.12509464451875701	0.46215829776766726	-0.31586657263451173	0.18317184151334365	0.029696195737711983	0.06677755896116738	-0.19520239992498817	-0.009206810837797527	0.27159101304134453	-0.013300668305524808	-0.02779165581271785	0.39322463145617	0.20091193306118285	-0.03447192305511877	0.3970713710191539	0.2786317055437305	-0.05154595696114303	0.394577593412079	0.31648816634365623	-0.0498211428992688	0.4573571546571198	0.30598662662609055
121	2.0508474576271185	0.2789182321002648	0.3494387542930495	0.209686343490901	0.25552514031287527	0.48692412090632975	0.5858581091835323	0.23674752050055475	0.7693748650486761	0.9407777216567199	0.2201581265055389	0.5482701470933607	0.9933644249261598	0.2644111725242554	0.5557559843925478	0.9986874321054405	0.23831160476107488	0.8866720399235989	1.0039728113638686	0.07204156381778201	0.3913876828889813	0.20211791153567737	0.0678012110668425	0.48750064433508683	0.5856077521625968	0.0870953084574336	0.7801606468394338	0.9549621141072303	0.10099651908062769	0.5317112291282418	0.9876327132482093	0.06212796645124515	0.5790987098865379	0.99333810843073	0.09417999242719466	0.8576627376567931	0.9915416307529767	0.17973420629127898	-0.023436942280060668	-0.18006269136219974	0.18290695025841874	-0.3493381278142821	-0.3153021956846467	0.1807160398719999	-0.2549004689624795	-0.15811524082096834	0.3344155805805583	-0.01564292720638511	-0.14140185079629067	0.4179331532406171	0.013842466780220096	0.12240706095444102	0.4472532999727263	-0.19972043227249767	0.13248296066180898	0.4436516615284583	-0.3609493478641806	0.09790872175011744	0.4410765238434232	-0.35485610726192773	0.10992961723322484	0.4409727781462852	-0.3249132157466152	0.1717132500800797	0.02901965420399206	0.0652801253199756	-0.19561641564012577	-0.015348383113673016	0.2687955172017943	-0.010529595556522879	-0.034228468543477525	0.3926510742543853	0.2057039659773371	-0.038414266832195613	0.3912343031802452	0.2815299896052435	-0.05537891018342389	0.37923512759385036	0.32149404689491645	-0.05250365536398056	0.4600932312847926	0.31339640258016016
122	2.067796610169492	0.28163059151378195	0.34778486102909945	0.20920190398037258	0.2555732222904961	0.48714006089796547	0.5856983990665174	0.2364801603142202	0.7688351957439276	0.941935392098495	0.2216398975168205	0.5520730107638582	0.9938530137248005	0.26579917606024306	0.5561822122240732	0.9994153955294611	0.23616091567809527	0.8883147731621615	1.0051882740172438	0.07179820495405656	0.3921750255761052	0.20083343817199223	0.06989185057955204	0.48837157763924205	0.5850953780093568	0.08706154708640756	0.7801447989815667	0.9548668483516607	0.10102538038678044	0.5313818388265206	0.9875532755165697	0.06254718729427977	0.5778659900854839	0.9932711786654473	0.09447712131289715	0.8580068419044111	0.9915327583673812	0.18212392856487125	-0.02281626006150153	-0.1810277121549486	0.1844779172321755	-0.3464508582966379	-0.31762987124279174	0.18508819428385476	-0.25591868115882244	-0.1604687596732674	0.3373653204017879	-0.019292851636296023	-0.14389065683098004	0.43419804021805225	0.013365391980390079	0.12239165185065147	0.4424845126170681	-0.21236283856294746	0.12461174325358276	0.41980171575766995	-0.3712110586963828	0.09061181797492744	0.41685786657267876	-0.3688940835138735	0.10294104245942179	0.41706454998971715	-0.3317542598750387	0.16411951045090736	0.02827004261916115	0.0648831810342572	-0.1974846301756128	-0.02129511981817797	0.26506542233357433	-0.007410582498393781	-0.03873052428491802	0.3932489446974064	0.20822955975519913	-0.04123885397545276	0.3809971806567159	0.2842769518356071	-0.05794669387532285	0.3646128063131835	0.3247408082431906	-0.05466804279016089	0.4599311248727646	0.31877574480545856
123	2.0847457627118646	0.28325471776294836	0.34473377667124233	0.20616342932410162	0.2557845456497337	0.4880366917847035	0.5845660345877977	0.23546124571270344	0.7683082410707933	0.9423761351046447	0.22357719944369403	0.5538968242433182	0.9943914432203717	0.2671465411872297	0.5583423378748908	0.998985649056422	0.23468918529851804	0.8897508108426333	1.0061003841425817	0.07081634794844546	0.39132017462544116	0.19667505220382278	0.07034483843410008	0.49164878120902455	0.5826505839364821	0.08683270705266408	0.7799478279173887	0.9547400967412131	0.1009878475923098	0.5309466955436405	0.9873646910395064	0.06407459712723146	0.5739487615335754	0.9929191890776556	0.09455663227558503	0.8583482692725082	0.991479379246783	0.18423161451261824	-0.0215018760400932	-0.18376303706993458	0.18567261952121655	-0.34484162721157474	-0.3206925120072279	0.1892235418360722	-0.259432567336065	-0.16392918821243774	0.34040509893797244	-0.023824799925911255	-0.14406120792072277	0.4421627875713645	0.007924780999110974	0.11767597918883942	0.43478759424806723	-0.22249705544639314	0.11993767953830116	0.39561935978006674	-0.3762609782987314	0.08708630868470613	0.3927815542557411	-0.37544372689945277	0.10106400715143579	0.3914641410198682	-0.3337542407186627	0.1591491536458794	0.02783918430019905	0.06362082903342303	-0.19883851299909922	-0.025802367521397505	0.26194020141450614	-0.0042221695415232095	-0.04115948416770893	0.3947198847654083	0.21017809898978376	-0.04313476432977835	0.3684989936066887	0.2882683856072924	-0.059212057727797696	0.3548588867829064	0.3280999609570996	-0.05721362353861091	0.4560333624220144	0.32302754693243063
124	2.101694915254237	0.2841313059002387	0.34046068088023546	0.20023963890543686	0.2562949842646995	0.49030113034860584	0.5818159034065795	0.2346961545096151	0.7676712908648676	0.9415082199203303	0.22555415420165234	0.5539775760748513	0.9953230500064953	0.2685109285562591	0.5637239902371525	0.9979018272576003	0.234433576649398	0.8904802854128994	1.0062912254750223	0.0692725122538975	0.3876045929621891	0.18982431233810426	0.0690591550236199	0.4967381084177646	0.5788930278262819	0.08678184100377646	0.7798381960057515	0.9546206990577646	0.10093311441177899	0.530857249838512	0.9872196111025989	0.0661751386877393	0.5683546377199225	0.9922844943426594	0.09440741295948284	0.8582551488368398	0.9909728487156824	0.18561454478515352	-0.020414080429442767	-0.1881890238600414	0.1866452601614584	-0.3450523949031267	-0.32443025049710483	0.1918183880276395	-0.26315142369096073	-0.16799131933295133	0.34383240972924445	-0.03071433830570262	-0.1445435074393502	0.44539418257873575	-5.278264886036813e-05	0.10790784995361513	0.42470009245402673	-0.23218027193738605	0.11565338586717122	0.3707654986216903	-0.37533366112183447	0.0860016530927009	0.36721284719727476	-0.37686909509259486	0.10361240796327081	0.365103068820051	-0.33455723741999666	0.15893286053194208	0.02837254732801002	0.059729976281848916	-0.19834861236961976	-0.028389895246758917	0.26198507161825263	-0.002567637398088522	-0.04234326795751242	0.39625649857532536	0.212786796878245	-0.04476911739399918	0.35627321940397144	0.2939620016915631	-0.059774181063760375	0.3500510387697415	0.33269362283461856	-0.061298993634402554	0.44863613196031676	0.32778718909619137
125	2.1186440677966103	0.2849207297596941	0.3363209925299888	0.19274044021119013	0.25682763195640407	0.4927583310060618	0.5775266274253417	0.23430545024749103	0.7666306816396946	0.9390840906671934	0.22720160922746407	0.5528639646713001	0.9965422810713002	0.26987697635106556	0.5707587150472562	0.9970358170389682	0.2346681360235215	0.8904449331579831	1.0058340809729804	0.06782026233850595	0.381241717544753	0.1825246939834812	0.06703917738860247	0.5019761206728268	0.5747932132770702	0.08727692918824959	0.7800357698203743	0.9544386976121307	0.10096531408977501	0.531363393068876	0.9871102936160072	0.06788140613611965	0.5638067800838834	0.9915998941530558	0.09389034316607622	0.8571593756613147	0.9897733055844508	0.18625902828801963	-0.02047900847558794	-0.19316713251959206	0.18751598756619065	-0.3463196432093745	-0.32844383905879065	0.19267156267743715	-0.2657581674938751	-0.17215174436364322	0.34700081170312674	-0.039004099124157	-0.14789855378935504	0.4480134180684635	-0.005092443764754632	0.09398357173818847	0.41184359795733716	-0.24199878037612207	0.11132702969436711	0.3450084044085364	-0.37031429004674954	0.08951804591288504	0.3402560246520362	-0.3750292032533877	0.11038937516839496	0.3392700183729952	-0.33521674458561157	0.16521203492197764	0.02961946237154601	0.05343096775207344	-0.19609585367041343	-0.02918445378938411	0.2649730541861748	-0.0039568572956430355	-0.04345969713644187	0.39655942524868104	0.21556576149567847	-0.046585399793308405	0.3462371899686046	0.30083186810924517	-0.06031795996333642	0.3488441851953927	0.33821068539792465	-0.0669009989748319	0.43850655364215885	0.33264301351328496
